<svg width="361" height="361" viewBox="0 0 361 361" fill="none" xmlns="http://www.w3.org/2000/svg">
<rect width="361" height="361" rx="180.5" fill="url(#paint0_linear_1190_5869)"/>
<path d="M86.4157 128.164C84.1987 128.164 82.2004 127.668 80.4209 126.676C78.6415 125.655 77.2266 124.24 76.1765 122.431C75.1554 120.623 74.6449 118.493 74.6449 116.043C74.6449 113.563 75.1554 111.419 76.1765 109.61C77.2266 107.802 78.6415 106.402 80.4209 105.41C82.2004 104.418 84.1987 103.922 86.4157 103.922C88.3994 103.922 90.1351 104.36 91.6229 105.235C93.1106 106.11 94.2629 107.437 95.0797 109.217C95.8965 110.996 96.3049 113.271 96.3049 116.043C96.3049 118.785 95.9111 121.06 95.1235 122.869C94.3358 124.648 93.1982 125.976 91.7104 126.851C90.2518 127.726 88.4869 128.164 86.4157 128.164ZM87.5972 122.563C88.7057 122.563 89.7121 122.3 90.6165 121.775C91.5208 121.25 92.2355 120.506 92.7606 119.543C93.3148 118.552 93.592 117.385 93.592 116.043C93.592 114.672 93.3148 113.505 92.7606 112.542C92.2355 111.58 91.5208 110.836 90.6165 110.311C89.7121 109.785 88.7057 109.523 87.5972 109.523C86.4595 109.523 85.4385 109.785 84.5342 110.311C83.6298 110.836 82.9005 111.58 82.3463 112.542C81.8212 113.505 81.5586 114.672 81.5586 116.043C81.5586 117.385 81.8212 118.552 82.3463 119.543C82.9005 120.506 83.6298 121.25 84.5342 121.775C85.4385 122.3 86.4595 122.563 87.5972 122.563ZM93.767 127.814V123L93.8983 115.999L93.4607 109.042V95.3455H100.287V127.814H93.767ZM117.807 128.164C115.298 128.164 113.066 127.639 111.112 126.588C109.186 125.538 107.655 124.109 106.517 122.3C105.409 120.462 104.854 118.377 104.854 116.043C104.854 113.68 105.409 111.594 106.517 109.785C107.655 107.948 109.186 106.518 111.112 105.497C113.066 104.447 115.298 103.922 117.807 103.922C120.286 103.922 122.503 104.447 124.458 105.497C126.412 106.518 127.944 107.933 129.052 109.742C130.161 111.55 130.715 113.651 130.715 116.043C130.715 118.377 130.161 120.462 129.052 122.3C127.944 124.109 126.412 125.538 124.458 126.588C122.503 127.639 120.286 128.164 117.807 128.164ZM117.807 122.563C118.944 122.563 119.965 122.3 120.87 121.775C121.774 121.25 122.489 120.506 123.014 119.543C123.539 118.552 123.801 117.385 123.801 116.043C123.801 114.672 123.539 113.505 123.014 112.542C122.489 111.58 121.774 110.836 120.87 110.311C119.965 109.785 118.944 109.523 117.807 109.523C116.669 109.523 115.648 109.785 114.744 110.311C113.839 110.836 113.11 111.58 112.556 112.542C112.031 113.505 111.768 114.672 111.768 116.043C111.768 117.385 112.031 118.552 112.556 119.543C113.11 120.506 113.839 121.25 114.744 121.775C115.648 122.3 116.669 122.563 117.807 122.563ZM145.386 128.164C143.169 128.164 141.171 127.668 139.391 126.676C137.612 125.655 136.197 124.24 135.147 122.431C134.126 120.623 133.615 118.493 133.615 116.043C133.615 113.563 134.126 111.419 135.147 109.61C136.197 107.802 137.612 106.402 139.391 105.41C141.171 104.418 143.169 103.922 145.386 103.922C147.37 103.922 149.105 104.36 150.593 105.235C152.081 106.11 153.233 107.437 154.05 109.217C154.867 110.996 155.275 113.271 155.275 116.043C155.275 118.785 154.881 121.06 154.094 122.869C153.306 124.648 152.168 125.976 150.681 126.851C149.222 127.726 147.457 128.164 145.386 128.164ZM146.567 122.563C147.676 122.563 148.682 122.3 149.587 121.775C150.491 121.25 151.206 120.506 151.731 119.543C152.285 118.552 152.562 117.385 152.562 116.043C152.562 114.672 152.285 113.505 151.731 112.542C151.206 111.58 150.491 110.836 149.587 110.311C148.682 109.785 147.676 109.523 146.567 109.523C145.43 109.523 144.409 109.785 143.504 110.311C142.6 110.836 141.871 111.58 141.316 112.542C140.791 113.505 140.529 114.672 140.529 116.043C140.529 117.385 140.791 118.552 141.316 119.543C141.871 120.506 142.6 121.25 143.504 121.775C144.409 122.3 145.43 122.563 146.567 122.563ZM152.737 127.814V123L152.868 115.999L152.431 109.042V95.3455H159.257V127.814H152.737ZM180.015 127.814V123.219L179.577 122.213V113.986C179.577 112.528 179.125 111.39 178.221 110.573C177.346 109.756 175.989 109.348 174.151 109.348C172.897 109.348 171.657 109.552 170.432 109.961C169.236 110.34 168.215 110.865 167.369 111.536L164.919 106.766C166.202 105.862 167.748 105.162 169.557 104.666C171.365 104.17 173.203 103.922 175.07 103.922C178.658 103.922 181.444 104.768 183.428 106.46C185.412 108.152 186.404 110.792 186.404 114.38V127.814H180.015ZM172.839 128.164C171.001 128.164 169.426 127.857 168.113 127.245C166.8 126.603 165.794 125.742 165.094 124.663C164.393 123.584 164.043 122.373 164.043 121.031C164.043 119.631 164.379 118.406 165.05 117.356C165.75 116.305 166.844 115.489 168.332 114.905C169.819 114.293 171.759 113.986 174.151 113.986H180.409V117.968H174.895C173.291 117.968 172.182 118.231 171.57 118.756C170.986 119.281 170.695 119.937 170.695 120.725C170.695 121.6 171.03 122.3 171.701 122.825C172.401 123.321 173.349 123.569 174.545 123.569C175.683 123.569 176.704 123.307 177.608 122.781C178.513 122.227 179.169 121.425 179.577 120.375L180.627 123.525C180.132 125.042 179.227 126.195 177.915 126.982C176.602 127.77 174.91 128.164 172.839 128.164ZM197.536 127.814L189.047 104.272H195.48L202.525 124.532H199.462L206.813 104.272H212.589L219.721 124.532H216.658L223.922 104.272H229.961L221.428 127.814H214.821L208.563 110.442H210.576L204.1 127.814H197.536ZM243.695 128.164C241.186 128.164 238.955 127.639 237 126.588C235.075 125.538 233.543 124.109 232.406 122.3C231.297 120.462 230.743 118.377 230.743 116.043C230.743 113.68 231.297 111.594 232.406 109.785C233.543 107.948 235.075 106.518 237 105.497C238.955 104.447 241.186 103.922 243.695 103.922C246.175 103.922 248.392 104.447 250.346 105.497C252.301 106.518 253.832 107.933 254.941 109.742C256.049 111.55 256.604 113.651 256.604 116.043C256.604 118.377 256.049 120.462 254.941 122.3C253.832 124.109 252.301 125.538 250.346 126.588C248.392 127.639 246.175 128.164 243.695 128.164ZM243.695 122.563C244.833 122.563 245.854 122.3 246.758 121.775C247.663 121.25 248.377 120.506 248.902 119.543C249.427 118.552 249.69 117.385 249.69 116.043C249.69 114.672 249.427 113.505 248.902 112.542C248.377 111.58 247.663 110.836 246.758 110.311C245.854 109.785 244.833 109.523 243.695 109.523C242.557 109.523 241.536 109.785 240.632 110.311C239.728 110.836 238.999 111.58 238.444 112.542C237.919 113.505 237.657 114.672 237.657 116.043C237.657 117.385 237.919 118.552 238.444 119.543C238.999 120.506 239.728 121.25 240.632 121.775C241.536 122.3 242.557 122.563 243.695 122.563ZM261.166 127.814V104.272H267.686V110.923L266.767 108.998C267.467 107.335 268.591 106.081 270.137 105.235C271.683 104.36 273.564 103.922 275.781 103.922V110.223C275.49 110.194 275.227 110.179 274.994 110.179C274.76 110.15 274.512 110.136 274.25 110.136C272.383 110.136 270.866 110.675 269.699 111.755C268.561 112.805 267.993 114.453 267.993 116.699V127.814H261.166ZM285.528 123L285.703 114.686L296.686 104.272H304.825L294.279 114.993L290.735 117.881L285.528 123ZM279.883 127.814V95.3455H286.709V127.814H279.883ZM297.43 127.814L289.466 117.924L293.754 112.63L305.7 127.814H297.43Z" fill="white"/>
<path d="M241.107 267.757C244.931 265.904 244.931 265.904 246.275 264.066C245.722 260.248 243.229 257.201 241.153 254.053C240.761 253.416 240.368 252.779 239.964 252.123C239.558 251.51 239.152 250.898 238.734 250.267C238.375 249.71 238.016 249.153 237.647 248.579C235.776 246.944 235.101 246.873 232.745 246.42C226.427 244.704 222.242 239.186 217.824 234.643C216.81 233.619 215.794 232.596 214.777 231.574C212.117 228.895 209.474 226.2 206.833 223.502C204.13 220.746 201.413 218.005 198.696 215.263C193.378 209.89 188.077 204.501 182.787 199.101C183.532 197.593 184.281 196.119 185.14 194.672C185.882 192.845 185.726 192.053 185.001 190.242C183.525 188.766 183.525 188.766 180.803 188.212C176.673 187.238 173.836 184.986 171.526 181.438C170.331 179.168 169.543 177.195 169.072 174.654C167.971 170.811 165.191 168.37 162.433 165.604C161.876 165.036 161.319 164.468 160.744 163.883C159.566 162.689 158.383 161.501 157.196 160.317C155.383 158.501 153.599 156.66 151.816 154.816C150.666 153.658 149.514 152.501 148.361 151.347C147.831 150.794 147.301 150.241 146.755 149.672C143.053 146.052 143.053 146.052 140.546 145.753C134.335 146.435 130.523 150.613 126.776 155.237C125.472 158.03 124.886 160.576 125.205 163.666C126.569 166.107 128.444 167.907 130.447 169.837C131.275 170.67 131.275 170.67 132.119 171.52C133.291 172.69 134.472 173.851 135.661 175.004C137.459 176.752 139.22 178.532 140.979 180.32C151.257 190.575 151.257 190.575 158.657 192.547C161.915 193.612 163.857 195.34 165.577 198.271C166.58 200.559 166.58 200.559 167.284 202.931C168.007 204.964 168.593 205.877 170.237 207.222C172.698 206.237 175.158 205.253 177.619 204.269C183.562 210.109 189.492 215.96 195.408 221.828C198.155 224.552 200.906 227.272 203.667 229.983C206.334 232.601 208.989 235.23 211.637 237.866C212.647 238.868 213.661 239.866 214.679 240.86C216.109 242.258 217.524 243.669 218.937 245.083C219.357 245.488 219.777 245.892 220.209 246.308C222.913 249.054 224.138 251.53 225.144 255.251C225.792 257.267 226.783 258.133 228.511 259.313C229.088 259.719 229.664 260.124 230.259 260.542C230.915 260.974 231.572 261.406 232.248 261.851C233.439 262.659 233.439 262.659 234.653 263.483C236.794 264.925 238.945 266.348 241.107 267.757Z" fill="#1565C0"/>
<path d="M201.243 213.128C204.291 210.646 207.093 208.027 209.833 205.215C218.015 196.606 218.015 196.606 228.821 192.794C236.953 192.01 242.947 189.898 248.666 183.786C251.523 180.13 253.657 176.47 253.657 171.787C249.174 172.197 245.654 175.029 241.957 177.384C241.417 177.716 240.876 178.048 240.32 178.39C239.59 178.853 239.59 178.853 238.845 179.325C237.039 180.061 236.263 179.861 234.463 179.169C229.202 175.811 227.161 170.766 225.737 164.834C226.479 161.595 227.169 161.329 229.895 159.586C231.407 158.727 232.93 157.888 234.463 157.068C235.238 156.634 236.012 156.199 236.811 155.752C238.726 154.681 240.65 153.629 242.584 152.593C242.097 151.374 241.609 150.156 241.107 148.901C232.381 148.61 223.471 149.434 216.668 155.442C213.273 159.053 211.624 162.246 211.543 167.314C211.381 174.174 209.481 177.847 204.934 182.86C204.511 183.328 204.089 183.796 203.654 184.279C198.808 189.606 193.807 194.77 188.693 199.839C192.584 204.572 196.881 208.836 201.243 213.128Z" fill="#1565C0"/>
<path d="M140.707 272.186C158.209 271.97 158.209 271.97 165.251 266.459C169.674 261.917 170.946 256.64 171.113 250.455C171.886 240.259 184.63 230.319 191.646 223.463C190.643 221.216 189.516 219.681 187.764 217.961C187.303 217.504 186.841 217.047 186.365 216.577C185.885 216.108 185.404 215.64 184.909 215.158C184.423 214.678 183.937 214.199 183.436 213.704C182.238 212.525 181.038 211.348 179.834 210.175C177.208 211.404 175.643 212.802 173.651 214.927C170.598 218.053 167.407 220.823 163.962 223.509C163.51 223.861 163.059 224.213 162.594 224.576C159.458 226.99 157.745 227.922 153.807 228.256C145.74 228.999 139.084 230.957 133.694 237.397C128.157 245.056 128.157 245.056 128.157 250.039C130.56 249.567 132.293 248.694 134.363 247.401C134.973 247.03 135.583 246.659 136.212 246.278C137.49 245.492 138.765 244.7 140.036 243.901C140.646 243.534 141.256 243.166 141.884 242.787C142.437 242.444 142.991 242.1 143.561 241.747C145.131 240.998 145.131 240.998 146.698 241.709C151.684 245.107 154.11 248.834 155.241 254.653C155.52 256.052 155.52 256.052 155.804 257.479C155.938 258.191 156.072 258.903 156.21 259.636C155.735 259.802 155.261 259.968 154.771 260.138C151.694 261.47 148.887 263.176 146.013 264.896C145.432 265.242 144.85 265.587 144.25 265.943C142.822 266.792 141.395 267.642 139.969 268.495C140.213 269.713 140.456 270.931 140.707 272.186Z" fill="#1565C0"/>
<defs>
<linearGradient id="paint0_linear_1190_5869" x1="180.5" y1="0" x2="180.5" y2="361" gradientUnits="userSpaceOnUse">
<stop stop-color="#E95932"/>
<stop offset="1" stop-color="#F6B3A1"/>
</linearGradient>
</defs>
</svg>
