<svg width="65" height="65" viewBox="0 0 65 65" fill="none" xmlns="http://www.w3.org/2000/svg">
<g clip-path="url(#clip0_137_2056)">
<path d="M31.5793 50.5965C42.4732 50.5965 51.3044 41.7653 51.3044 30.8714C51.3044 19.9776 42.4732 11.1464 31.5793 11.1464C20.6855 11.1464 11.8542 19.9776 11.8542 30.8714C11.8542 41.7653 20.6855 50.5965 31.5793 50.5965Z" fill="#FEE187"/>
<path d="M33.161 29.3865V23.769C35.4033 24.1622 35.7405 25.4052 35.7911 26.1361C35.8041 26.3233 35.9586 26.4682 36.1465 26.4682H38.5956C38.8012 26.4682 38.9631 26.2941 38.9526 26.0888C38.7937 23.0077 36.6817 21.0252 33.1611 20.58V18.6907C33.1611 18.4937 33.0015 18.3342 32.8046 18.3342H30.3557C30.1587 18.3342 29.9992 18.4939 29.9992 18.6907V20.58C26.336 21.0432 24.198 23.1705 24.198 26.4682C24.198 29.766 26.336 31.8931 29.9992 32.3563V37.9741C27.7569 37.5808 27.4197 36.3378 27.3691 35.6069C27.3561 35.4197 27.2016 35.2748 27.0137 35.2748H24.5646C24.359 35.2748 24.1971 35.4489 24.2076 35.6542C24.3665 38.7353 26.4785 40.7178 29.9991 41.1631V43.0523C29.9991 43.2493 30.1587 43.4088 30.3556 43.4088H32.8045C33.0015 43.4088 33.161 43.2492 33.161 43.0523V41.1629C36.8242 40.6997 38.9622 38.5724 38.9622 35.2747C38.9622 31.977 36.8242 29.8497 33.161 29.3865ZM29.999 29.167C27.3604 28.7043 27.3599 27.065 27.3599 26.468C27.3599 25.8711 27.3605 24.2315 29.999 23.7688V29.167ZM33.161 37.9737V32.5756C35.7996 33.0382 35.8001 34.6777 35.8001 35.2747C35.8001 35.8716 35.7997 37.5109 33.161 37.9737Z" fill="#F57C00"/>
<path d="M62.7013 43.2331C62.7002 42.7354 62.5014 42.2587 62.1489 41.9074C61.7962 41.5564 61.3129 41.3641 60.8209 41.3609L53.4452 41.3771C52.409 41.3793 51.5708 42.2212 51.5731 43.2573C51.5753 44.2923 52.415 45.1297 53.4493 45.1297C53.4506 45.1297 53.4522 45.1297 53.4535 45.1297L56.6667 45.1226L44.9434 55.6127L41.5927 50.0132C43.4872 49.0237 45.2647 47.7347 46.8541 46.1454C55.2762 37.7231 55.2762 24.0193 46.8541 15.5972C38.432 7.17513 24.7283 7.17513 16.3059 15.5972C15.5733 16.3299 15.573 17.518 16.3059 18.2509C17.0388 18.9834 18.2268 18.9835 18.9593 18.2509C25.9186 11.2915 37.2419 11.2919 44.2007 18.2509C51.1597 25.2098 51.1597 36.5331 44.2007 43.4921C42.8339 44.8589 41.2972 45.9529 39.6599 46.783L39.4062 46.359C39.1092 45.8628 38.6004 45.5314 38.0265 45.4603C37.4525 45.3898 36.8782 45.5868 36.4694 45.9958L33.909 48.5562C28.5974 49.2494 23.0314 47.5644 18.9594 43.4923C18.2268 42.7598 17.0387 42.7598 16.306 43.4923C15.5734 44.2249 15.5734 45.4131 16.306 46.1459C20.1302 49.9699 25.0431 52.0574 30.0564 52.4089L25.789 56.6763C25.6995 56.6399 25.6074 56.608 25.5106 56.5853C13.5319 53.7685 5.16631 43.1949 5.16631 30.8711C5.16631 23.8156 7.91393 17.1827 12.9027 12.194C17.8914 7.20525 24.5245 4.45763 31.58 4.45763C46.1444 4.45763 57.9937 16.3067 57.9937 30.8711C57.9937 31.9072 58.8337 32.7473 59.8699 32.7473C60.9062 32.7473 61.7462 31.9072 61.7462 30.8711C61.7462 14.2376 48.2137 0.705139 31.58 0.705139C23.5223 0.705139 15.9468 3.84301 10.2492 9.54062C4.55156 15.2382 1.41382 22.8136 1.41382 30.8711C1.41382 37.7106 3.76631 44.4096 8.03768 49.7342C11.8288 54.46 16.9965 57.9559 22.7443 59.7201L20.9624 61.502C20.2298 62.2346 20.2298 63.4228 20.9624 64.1556C21.3288 64.5219 21.809 64.7051 22.2892 64.7051C22.7693 64.7051 23.2496 64.5219 23.6159 64.1556L35.7035 52.068C36.5071 51.9129 37.3032 51.7108 38.088 51.4643L42.8906 59.49C43.1781 59.9705 43.6651 60.2975 44.2189 60.3816C44.7721 60.4656 45.3345 60.2984 45.752 59.9248L58.9598 48.1064L58.9653 50.617C58.9676 51.652 59.8072 52.4894 60.8416 52.4894C60.8428 52.4894 60.8444 52.4894 60.8457 52.4894C61.8819 52.4872 62.7201 51.6453 62.7178 50.6092L62.7013 43.2331Z" fill="#F57C00"/>
</g>
<defs>
<clipPath id="clip0_137_2056">
<rect width="64" height="64" fill="white" transform="translate(0.0656738 0.705139)"/>
</clipPath>
</defs>
</svg>
