<svg width="78" height="78" viewBox="0 0 78 78" fill="none" xmlns="http://www.w3.org/2000/svg">
<rect width="78" height="78" rx="39" fill="url(#paint0_linear_1369_20950)"/>
<path d="M17.3879 27.7392C16.8812 27.7392 16.4246 27.6258 16.0179 27.3992C15.6112 27.1658 15.2879 26.8425 15.0479 26.4292C14.8146 26.0158 14.6979 25.5292 14.6979 24.9692C14.6979 24.4025 14.8146 23.9125 15.0479 23.4992C15.2879 23.0858 15.6112 22.7658 16.0179 22.5392C16.4246 22.3125 16.8812 22.1992 17.3879 22.1992C17.8412 22.1992 18.2379 22.2992 18.5779 22.4992C18.9179 22.6992 19.1812 23.0025 19.3679 23.4092C19.5546 23.8158 19.6479 24.3358 19.6479 24.9692C19.6479 25.5958 19.5579 26.1158 19.3779 26.5292C19.1979 26.9358 18.9379 27.2392 18.5979 27.4392C18.2646 27.6392 17.8612 27.7392 17.3879 27.7392ZM17.6579 26.4592C17.9112 26.4592 18.1412 26.3992 18.3479 26.2792C18.5546 26.1592 18.7179 25.9892 18.8379 25.7692C18.9646 25.5425 19.0279 25.2758 19.0279 24.9692C19.0279 24.6558 18.9646 24.3892 18.8379 24.1692C18.7179 23.9492 18.5546 23.7792 18.3479 23.6592C18.1412 23.5392 17.9112 23.4792 17.6579 23.4792C17.3979 23.4792 17.1646 23.5392 16.9579 23.6592C16.7512 23.7792 16.5846 23.9492 16.4579 24.1692C16.3379 24.3892 16.2779 24.6558 16.2779 24.9692C16.2779 25.2758 16.3379 25.5425 16.4579 25.7692C16.5846 25.9892 16.7512 26.1592 16.9579 26.2792C17.1646 26.3992 17.3979 26.4592 17.6579 26.4592ZM19.0679 27.6592V26.5592L19.0979 24.9592L18.9979 23.3692V20.2392H20.5579V27.6592H19.0679ZM24.5617 27.7392C23.9884 27.7392 23.4784 27.6192 23.0317 27.3792C22.5917 27.1392 22.2417 26.8125 21.9817 26.3992C21.7284 25.9792 21.6017 25.5025 21.6017 24.9692C21.6017 24.4292 21.7284 23.9525 21.9817 23.5392C22.2417 23.1192 22.5917 22.7925 23.0317 22.5592C23.4784 22.3192 23.9884 22.1992 24.5617 22.1992C25.1284 22.1992 25.6351 22.3192 26.0817 22.5592C26.5284 22.7925 26.8784 23.1158 27.1317 23.5292C27.3851 23.9425 27.5117 24.4225 27.5117 24.9692C27.5117 25.5025 27.3851 25.9792 27.1317 26.3992C26.8784 26.8125 26.5284 27.1392 26.0817 27.3792C25.6351 27.6192 25.1284 27.7392 24.5617 27.7392ZM24.5617 26.4592C24.8217 26.4592 25.0551 26.3992 25.2617 26.2792C25.4684 26.1592 25.6317 25.9892 25.7517 25.7692C25.8717 25.5425 25.9317 25.2758 25.9317 24.9692C25.9317 24.6558 25.8717 24.3892 25.7517 24.1692C25.6317 23.9492 25.4684 23.7792 25.2617 23.6592C25.0551 23.5392 24.8217 23.4792 24.5617 23.4792C24.3017 23.4792 24.0684 23.5392 23.8617 23.6592C23.6551 23.7792 23.4884 23.9492 23.3617 24.1692C23.2417 24.3892 23.1817 24.6558 23.1817 24.9692C23.1817 25.2758 23.2417 25.5425 23.3617 25.7692C23.4884 25.9892 23.6551 26.1592 23.8617 26.2792C24.0684 26.3992 24.3017 26.4592 24.5617 26.4592ZM30.8645 27.7392C30.3578 27.7392 29.9011 27.6258 29.4945 27.3992C29.0878 27.1658 28.7645 26.8425 28.5245 26.4292C28.2911 26.0158 28.1745 25.5292 28.1745 24.9692C28.1745 24.4025 28.2911 23.9125 28.5245 23.4992C28.7645 23.0858 29.0878 22.7658 29.4945 22.5392C29.9011 22.3125 30.3578 22.1992 30.8645 22.1992C31.3178 22.1992 31.7145 22.2992 32.0545 22.4992C32.3945 22.6992 32.6578 23.0025 32.8445 23.4092C33.0311 23.8158 33.1245 24.3358 33.1245 24.9692C33.1245 25.5958 33.0345 26.1158 32.8545 26.5292C32.6745 26.9358 32.4145 27.2392 32.0745 27.4392C31.7411 27.6392 31.3378 27.7392 30.8645 27.7392ZM31.1345 26.4592C31.3878 26.4592 31.6178 26.3992 31.8245 26.2792C32.0311 26.1592 32.1945 25.9892 32.3145 25.7692C32.4411 25.5425 32.5045 25.2758 32.5045 24.9692C32.5045 24.6558 32.4411 24.3892 32.3145 24.1692C32.1945 23.9492 32.0311 23.7792 31.8245 23.6592C31.6178 23.5392 31.3878 23.4792 31.1345 23.4792C30.8745 23.4792 30.6411 23.5392 30.4345 23.6592C30.2278 23.7792 30.0611 23.9492 29.9345 24.1692C29.8145 24.3892 29.7545 24.6558 29.7545 24.9692C29.7545 25.2758 29.8145 25.5425 29.9345 25.7692C30.0611 25.9892 30.2278 26.1592 30.4345 26.2792C30.6411 26.3992 30.8745 26.4592 31.1345 26.4592ZM32.5445 27.6592V26.5592L32.5745 24.9592L32.4745 23.3692V20.2392H34.0345V27.6592H32.5445ZM38.7783 27.6592V26.6092L38.6783 26.3792V24.4992C38.6783 24.1658 38.575 23.9058 38.3683 23.7192C38.1683 23.5325 37.8583 23.4392 37.4383 23.4392C37.1516 23.4392 36.8683 23.4858 36.5883 23.5792C36.315 23.6658 36.0816 23.7858 35.8883 23.9392L35.3283 22.8492C35.6216 22.6425 35.975 22.4825 36.3883 22.3692C36.8016 22.2558 37.2216 22.1992 37.6483 22.1992C38.4683 22.1992 39.105 22.3925 39.5583 22.7792C40.0116 23.1658 40.2383 23.7692 40.2383 24.5892V27.6592H38.7783ZM37.1383 27.7392C36.7183 27.7392 36.3583 27.6692 36.0583 27.5292C35.7583 27.3825 35.5283 27.1858 35.3683 26.9392C35.2083 26.6925 35.1283 26.4158 35.1283 26.1092C35.1283 25.7892 35.205 25.5092 35.3583 25.2692C35.5183 25.0292 35.7683 24.8425 36.1083 24.7092C36.4483 24.5692 36.8916 24.4992 37.4383 24.4992H38.8683V25.4092H37.6083C37.2416 25.4092 36.9883 25.4692 36.8483 25.5892C36.715 25.7092 36.6483 25.8592 36.6483 26.0392C36.6483 26.2392 36.725 26.3992 36.8783 26.5192C37.0383 26.6325 37.255 26.6892 37.5283 26.6892C37.7883 26.6892 38.0216 26.6292 38.2283 26.5092C38.435 26.3825 38.585 26.1992 38.6783 25.9592L38.9183 26.6792C38.805 27.0258 38.5983 27.2892 38.2983 27.4692C37.9983 27.6492 37.6116 27.7392 37.1383 27.7392ZM42.7825 27.6592L40.8425 22.2792H42.3125L43.9225 26.9092H43.2225L44.9025 22.2792H46.2225L47.8525 26.9092H47.1525L48.8125 22.2792H50.1925L48.2425 27.6592H46.7325L45.3025 23.6892H45.7625L44.2825 27.6592H42.7825ZM53.3313 27.7392C52.7579 27.7392 52.2479 27.6192 51.8013 27.3792C51.3613 27.1392 51.0113 26.8125 50.7513 26.3992C50.4979 25.9792 50.3713 25.5025 50.3713 24.9692C50.3713 24.4292 50.4979 23.9525 50.7513 23.5392C51.0113 23.1192 51.3613 22.7925 51.8013 22.5592C52.2479 22.3192 52.7579 22.1992 53.3313 22.1992C53.8979 22.1992 54.4046 22.3192 54.8513 22.5592C55.2979 22.7925 55.6479 23.1158 55.9013 23.5292C56.1546 23.9425 56.2813 24.4225 56.2813 24.9692C56.2813 25.5025 56.1546 25.9792 55.9013 26.3992C55.6479 26.8125 55.2979 27.1392 54.8513 27.3792C54.4046 27.6192 53.8979 27.7392 53.3313 27.7392ZM53.3313 26.4592C53.5913 26.4592 53.8246 26.3992 54.0313 26.2792C54.2379 26.1592 54.4013 25.9892 54.5213 25.7692C54.6413 25.5425 54.7013 25.2758 54.7013 24.9692C54.7013 24.6558 54.6413 24.3892 54.5213 24.1692C54.4013 23.9492 54.2379 23.7792 54.0313 23.6592C53.8246 23.5392 53.5913 23.4792 53.3313 23.4792C53.0713 23.4792 52.8379 23.5392 52.6313 23.6592C52.4246 23.7792 52.2579 23.9492 52.1313 24.1692C52.0113 24.3892 51.9513 24.6558 51.9513 24.9692C51.9513 25.2758 52.0113 25.5425 52.1313 25.7692C52.2579 25.9892 52.4246 26.1592 52.6313 26.2792C52.8379 26.3992 53.0713 26.4592 53.3313 26.4592ZM57.324 27.6592V22.2792H58.814V23.7992L58.604 23.3592C58.764 22.9792 59.0207 22.6925 59.374 22.4992C59.7273 22.2992 60.1573 22.1992 60.664 22.1992V23.6392C60.5973 23.6325 60.5373 23.6292 60.484 23.6292C60.4307 23.6225 60.374 23.6192 60.314 23.6192C59.8873 23.6192 59.5407 23.7425 59.274 23.9892C59.014 24.2292 58.884 24.6058 58.884 25.1192V27.6592H57.324ZM62.8913 26.5592L62.9313 24.6592L65.4413 22.2792H67.3013L64.8913 24.7292L64.0813 25.3892L62.8913 26.5592ZM61.6013 27.6592V20.2392H63.1613V27.6592H61.6013ZM65.6113 27.6592L63.7913 25.3992L64.7713 24.1892L67.5013 27.6592H65.6113Z" fill="white"/>
<path d="M52.0952 58.3838C52.9214 57.9835 52.9214 57.9835 53.2117 57.5862C53.0923 56.7612 52.5536 56.1031 52.1051 55.4229C52.0203 55.2852 51.9355 55.1476 51.8481 55.0058C51.7604 54.8734 51.6727 54.7411 51.5824 54.6048C51.5049 54.4844 51.4274 54.364 51.3475 54.24C50.9433 53.8867 50.7974 53.8713 50.2883 53.7735C48.9232 53.4027 48.0189 52.2104 47.0644 51.229C46.8452 51.0077 46.6258 50.7867 46.4061 50.5659C45.8314 49.9869 45.2602 49.4047 44.6896 48.8218C44.1057 48.2264 43.5185 47.6341 42.9316 47.0416C41.7826 45.8807 40.6372 44.7162 39.4941 43.5496C39.655 43.2236 39.8168 42.9052 40.0025 42.5925C40.1629 42.1978 40.1291 42.0267 39.9726 41.6355C39.6536 41.3165 39.6536 41.3165 39.0654 41.1968C38.173 40.9863 37.5601 40.4998 37.061 39.7332C36.8028 39.2426 36.6326 38.8164 36.5307 38.2674C36.2929 37.437 35.6921 36.9096 35.0964 36.3119C34.976 36.1892 34.8555 36.0665 34.7314 35.94C34.4769 35.6822 34.2213 35.4254 33.9647 35.1696C33.573 34.7773 33.1876 34.3795 32.8022 33.981C32.5538 33.7308 32.305 33.4809 32.0558 33.2314C31.9413 33.112 31.8267 32.9925 31.7087 32.8695C30.9088 32.0874 30.9088 32.0874 30.3673 32.0228C29.0252 32.1702 28.2015 33.0728 27.3921 34.0719C27.1103 34.6755 26.9836 35.2255 27.0525 35.8932C27.3472 36.4206 27.7524 36.8094 28.1852 37.2266C28.3641 37.4066 28.3641 37.4066 28.5465 37.5902C28.7997 37.843 29.0548 38.0939 29.3118 38.3429C29.7003 38.7206 30.0807 39.1052 30.4607 39.4915C32.6816 41.7072 32.6816 41.7072 34.2804 42.1335C34.9844 42.3636 35.4039 42.7369 35.7755 43.3701C35.9923 43.8645 35.9923 43.8645 36.1444 44.377C36.3006 44.8164 36.4272 45.0135 36.7824 45.3041C37.3141 45.0915 37.8458 44.8788 38.3775 44.6661C39.6615 45.9279 40.9429 47.1923 42.221 48.46C42.8146 49.0486 43.4091 49.6364 44.0056 50.222C44.5818 50.7877 45.1555 51.3557 45.7276 51.9254C45.9459 52.1419 46.165 52.3575 46.3849 52.5723C46.6938 52.8743 46.9996 53.1791 47.3048 53.4848C47.3956 53.5721 47.4863 53.6594 47.5798 53.7494C48.1639 54.3426 48.4287 54.8776 48.646 55.6816C48.786 56.1171 49.0002 56.3042 49.3736 56.5594C49.4982 56.647 49.6228 56.7346 49.7511 56.8248C49.893 56.9182 50.0349 57.0115 50.1811 57.1077C50.4383 57.2823 50.4383 57.2823 50.7007 57.4604C51.1632 57.7719 51.6279 58.0794 52.0952 58.3838Z" fill="#1565C0"/>
<path d="M43.4818 46.5802C44.1405 46.0441 44.7459 45.4782 45.3379 44.8704C47.1056 43.0105 47.1056 43.0105 49.4406 42.1868C51.1976 42.0174 52.4928 41.5611 53.7283 40.2404C54.3457 39.4504 54.8068 38.6597 54.8068 37.6478C53.8381 37.7364 53.0775 38.3483 52.2787 38.8572C52.162 38.9289 52.0453 39.0007 51.9251 39.0746C51.7673 39.1746 51.7673 39.1746 51.6063 39.2766C51.2161 39.4356 51.0484 39.3925 50.6596 39.2429C49.5228 38.5172 49.0818 37.4272 48.7742 36.1455C48.9345 35.4457 49.0836 35.3882 49.6727 35.0115C49.9993 34.826 50.3284 34.6448 50.6596 34.4676C50.827 34.3737 50.9943 34.2799 51.1668 34.1832C51.5806 33.9518 51.9963 33.7245 52.4142 33.5006C52.3089 33.2374 52.2036 32.9742 52.0952 32.703C50.2097 32.6402 48.2845 32.8181 46.8146 34.1162C46.0811 34.8965 45.7248 35.5864 45.7074 36.6814C45.6724 38.1635 45.2618 38.9572 44.2793 40.0404C44.188 40.1415 44.0968 40.2427 44.0027 40.3469C42.9557 41.4979 41.8751 42.6137 40.7701 43.7091C41.6109 44.7316 42.5393 45.6528 43.4818 46.5802Z" fill="#1565C0"/>
<path d="M30.4022 59.3408C34.1837 59.2941 34.1837 59.2941 35.7052 58.1034C36.6608 57.1219 36.9357 55.9818 36.9719 54.6453C37.1387 52.4424 39.8925 50.2946 41.4082 48.8133C41.1915 48.3279 40.9481 47.9962 40.5695 47.6245C40.4698 47.5258 40.3701 47.4271 40.2673 47.3254C40.1635 47.2243 40.0597 47.1231 39.9527 47.0189C39.8476 46.9152 39.7426 46.8116 39.6343 46.7048C39.3756 46.4499 39.1162 46.1957 38.8561 45.9422C38.2887 46.2078 37.9507 46.5099 37.5202 46.969C36.8605 47.6445 36.1711 48.2429 35.4267 48.8233C35.3291 48.8994 35.2316 48.9754 35.1311 49.0538C34.4535 49.5755 34.0834 49.7768 33.2325 49.8489C31.4895 50.0095 30.0514 50.4326 28.8869 51.824C27.6906 53.4789 27.6906 53.4789 27.6906 54.5556C28.2096 54.4535 28.5841 54.265 29.0314 53.9855C29.1632 53.9054 29.295 53.8253 29.4308 53.7428C29.707 53.573 29.9824 53.4019 30.257 53.2294C30.3888 53.1499 30.5206 53.0704 30.6564 52.9886C30.776 52.9144 30.8955 52.8402 31.0187 52.7638C31.358 52.6021 31.358 52.6021 31.6966 52.7556C32.7739 53.4898 33.298 54.2952 33.5425 55.5525C33.6026 55.8548 33.6026 55.8548 33.664 56.1631C33.693 56.3169 33.722 56.4707 33.7518 56.6292C33.6492 56.665 33.5466 56.7007 33.4409 56.7376C32.7761 57.0253 32.1695 57.3941 31.5486 57.7657C31.4229 57.8403 31.2972 57.915 31.1676 57.9919C30.859 58.1752 30.5507 58.359 30.2427 58.5433C30.2953 58.8065 30.3479 59.0697 30.4022 59.3408Z" fill="#1565C0"/>
<defs>
<linearGradient id="paint0_linear_1369_20950" x1="39" y1="0" x2="39" y2="78" gradientUnits="userSpaceOnUse">
<stop stop-color="#E95932"/>
<stop offset="1" stop-color="#F6B3A1"/>
</linearGradient>
</defs>
</svg>
