<svg width="473" height="480" viewBox="0 0 473 480" fill="none" xmlns="http://www.w3.org/2000/svg">
<path fill-rule="evenodd" clip-rule="evenodd" d="M232.5 1.4C230.3 2.1 227.4 3.2 226 4C224.6 4.7 221.2 7 218.5 9.1C215.7 11.2 211 14 208 15.4C204.6 17 199.8 18.2 195.5 18.6C190.2 19.1 186.5 18.7 180 17.1C175.3 16 169.5 15 167 15C164.5 15 160 15.7 157 16.5C154 17.3 149.1 19.5 146.1 21.2C143.1 23 138.9 26.8 136.7 29.5C134.6 32.3 131.8 36.3 130.7 38.5C129.6 40.7 126.6 44.5 124.1 47.1C121.6 49.6 117 52.8 114 54.3C110.9 55.9 104.6 57.7 99.5 58.5C94.1 59.4 88.1 61.2 84.5 62.9C81 64.6 76.5 68 73.7 70.9C71.1 73.7 67.9 78.4 66.5 81.3C65.1 84.1 63.4 90.6 62.5 95.5C61.7 100.4 59.9 106.8 58.6 109.5C57.2 112.3 54.4 116.5 52.3 118.9C50.2 121.3 45.4 125.1 41.5 127.4C37.7 129.7 32.9 133.1 31 135C29 136.9 26.2 140.5 24.8 143C23.3 145.5 21.4 150.2 20.5 153.5C19.7 156.8 19 161.2 19 163.3V167H51.5C61.6 145.7 67.9 134.4 72.1 128C76.2 121.7 83 112.4 87.2 107.5C91.3 102.6 98.5 95 103.1 90.7C107.7 86.3 115.6 79.8 120.5 76.1C125.4 72.4 132.9 67.3 137 64.7C141.1 62.2 149.7 57.6 156 54.6C162.3 51.6 172.9 47.3 179.5 45.1C186.1 42.9 196 40.2 201.5 39.1C207 38 215.3 36.6 220 36C224.7 35.5 235.3 35 243.5 35C251.8 35 262.6 35.5 267.5 36C272.4 36.6 281 38 286.5 39.1C292 40.3 301.7 42.9 308 45C314.3 47 324.2 50.9 330 53.7C335.8 56.4 344.6 61 349.5 64C354.4 67 362.3 72.3 367 75.9C371.7 79.4 378.6 85 382.4 88.4C386.1 91.8 393.3 99.3 398.4 105.1C403.4 110.9 410.6 120.3 414.4 126.1C418.2 131.8 423.7 141 426.5 146.5C429.3 152 432.6 158.9 433.8 161.8L436 167C461.7 167 468.2 166.6 468.5 166C468.8 165.4 468.5 161.8 468 158C467.5 154.2 465.9 148.7 464.5 146C463.1 143.3 460.3 139.1 458.3 136.8C456.2 134.6 450.9 130.4 446.5 127.5C442.1 124.7 437 120.6 435.1 118.4C433.2 116.3 430.4 111.8 428.9 108.5C427.4 105.2 425.6 99.1 425 95C424.4 90.9 422.6 84.7 421 81.2C419.3 77.8 417.3 74.8 416.5 74.5C415.7 74.2 415 73.3 415 72.5C415 71.7 413.3 69.6 411.3 68C409.2 66.3 405.3 63.8 402.5 62.5C399.8 61.2 393.2 59.4 388 58.5C382.8 57.6 376.4 55.7 373.8 54.4C371.1 53.1 366.9 50.1 364.4 47.8C361.8 45.4 358.1 40.6 356 37C353.9 33.4 349.6 28.1 346.4 25.2C342.7 21.9 338.4 19.1 335 17.8C332 16.7 326.6 15.6 323 15.3C318.3 14.9 314.3 15.4 308.3 16.9C303.7 18.1 297.9 19 295.3 19C292.6 19 288 18.3 285 17.4C282 16.5 277.9 14.9 276 13.7C274.1 12.5 270.3 9.8 267.5 7.8C264.8 5.7 259.6 3.1 256 2C252.1 0.8 246.9 0 243 0C239.4 0.1 234.7 0.7 232.5 1.4V1.4ZM223 48.1C218.9 48.6 210.8 49.9 205 51C199.2 52.2 189.1 55 182.5 57.2C175.9 59.4 165.1 63.9 158.5 67.2C151.9 70.6 142.7 75.8 138 78.9C133.3 82 126.8 86.7 123.5 89.4C120.2 92.1 114.3 97.5 110.3 101.4C105.4 106.2 103.4 109 103.8 110C104.3 111.1 104.1 111.3 102.8 110.7C101.4 110.2 99.7 111.6 95.2 117.3C92.1 121.2 88.3 126.1 86.9 128C85.4 129.9 82.3 134.7 80 138.5C77.6 142.3 73.5 149.9 70.8 155.3C68.2 160.6 66 165.4 66 166C66 166.6 68.4 167 71.3 167H76.5C81.9 155.9 85.9 148.8 88.8 144.1C91.8 139.4 97 131.9 100.5 127.5C103.9 123.1 111 115.3 116.1 110.2C121.3 105.1 129.8 97.7 135 93.9C140.2 90 148.8 84.4 154 81.4C159.2 78.4 168.2 74 174 71.5C179.8 69.1 189.7 65.7 196 64.1C202.3 62.4 212 60.4 217.5 59.5C223.3 58.6 234.4 58 244 58C253.6 58 264.7 58.6 270.5 59.5C276 60.4 285 62.2 290.5 63.7C296 65.1 305.4 68.3 311.5 70.7C317.6 73.1 326.6 77.3 331.5 80.1C336.4 82.8 344.7 88.1 349.9 91.8C355.1 95.5 363.8 102.8 369.3 108C374.8 113.2 382 120.9 385.3 125C388.6 129.1 393.2 135.3 395.4 138.7C397.8 142.3 400 144.8 400.8 144.5C401.5 144.2 401.9 144.7 401.7 145.8C401.5 146.7 403.5 151.9 406.2 157.3L411 167C419.5 167 422 166.7 422 166.3C422 165.8 420 161.4 417.6 156.5C415.3 151.6 411.1 143.9 408.4 139.5C405.7 135.1 400.7 127.9 397.4 123.5C394 119.1 388 111.9 383.9 107.6C379.8 103.2 372.4 96.3 367.5 92.1C362.6 88 354.4 82 349.5 78.7C344.6 75.4 334.6 69.9 327.5 66.5C320.4 63 310.4 58.8 305.5 57.2C300.6 55.5 291.3 53.1 285 51.7C278.7 50.3 269.1 48.6 263.8 48.1C258.4 47.5 248.7 47.1 242.3 47.1C235.8 47.2 227.1 47.6 223 48.1V48.1ZM225 69.9C220.4 70.4 219.5 70.8 219.5 72.5C219.5 73.6 220.2 81.4 221 89.9L222.5 105.2C235.7 104.2 239.6 103.8 239.8 103.7C240 103.6 239.8 101.9 239.4 100L238.8 96.5L229 98C229 90.2 229.2 90 232.3 89.8C235.2 89.5 235.5 89.1 235.8 86L236.2 82.5C228.4 83.5 228.2 83.4 227.7 80.5C227.5 78.9 227.4 77.2 227.6 76.8C227.8 76.3 229.8 76 232 76C235.9 76 236 75.9 235.8 72.8C235.5 70.1 235.1 69.5 233 69.4C231.6 69.3 228 69.6 225 69.9V69.9ZM251.3 71C249.4 72.1 247.1 74.9 246 77.3C244.8 79.9 244 83.7 244 87.3C244 90.4 244.6 94.5 245.3 96.3C246.1 98 248.1 100.7 249.8 102.3C252.5 104.5 253.9 105 258.5 105H264V97C257.6 98.4 256.7 98.1 254.5 96C252.4 93.9 252 92.6 252 88.3C252 85.4 252.5 82 253 80.8C253.6 79.5 255 77.9 256.3 77.1C257.5 76.4 259.4 76 260.5 76.3C261.6 76.5 263.3 77 264.3 77.4C265.7 77.9 266 77.4 266 74.5C266 72 265.4 70.7 264 70C262.9 69.4 260.3 69 258.3 69C256.2 69 253 69.9 251.3 71ZM272.7 74.2C272.233 76.4 272.433 77.7333 273.3 78.2C273.9 78.6 275.3 79 276.3 79C277.3 79 278 79.7 278 80.8C277.9 81.7 276.6 87.9 275 94.5C273.5 101.1 272.2 106.6 272.3 106.7C272.4 106.9 274.1 107.3 276 107.6L279.5 108.2C283.1 92.9 284.5 86.9 285 85C285.9 81.8 286.2 81.5 289.2 81.9C292.1 82.2 292.6 81.9 293.2 79.4C293.5 77.8 293.8 76.4 293.7 76.3C293.6 76.1 289.7 75.1 285 74C280.3 72.9 275.8 71.7 274.9 71.4C273.8 71.1 273.2 71.9 272.7 74.2V74.2ZM203.5 73.7C202.4 73.9 201.6 74.3 201.8 74.6C201.9 74.8 203.5 80.6 205.3 87.4C208.2 98.5 208.3 100 207 101.5C206 102.567 204.6 102.933 202.8 102.6C200.2 102 200 102.2 200.6 104.8C201 106.3 202 108.1 202.9 108.8C203.9 109.6 205.7 109.9 207.5 109.5C209.1 109.2 211.5 108.3 212.8 107.5C214 106.7 215.2 104.8 215.5 103.3C215.8 101.7 214.5 94.4 212.7 87C209.9 75.5 209.1 73.5 207.5 73.3C206.4 73.3 204.6 73.4 203.5 73.7V73.7ZM178.3 81.8C175 83.3 171.9 84.7 171.6 85C171.3 85.3 173.8 92.3 177.3 100.6C180.7 109 183.8 116.1 184.3 116.4C184.7 116.7 188.4 115.7 192.5 114C199.3 111.3 199.9 110.8 199.4 108.8C199.1 107.5 198.5 106.1 198.1 105.6C197.8 105.2 196.1 105.2 194.5 105.8C192.9 106.3 190.8 107.1 190 107.5C188.9 107.9 188.1 107.2 187.2 104.8C186.1 101.9 186.1 101.4 187.7 100.2C188.7 99.5 190.1 99 190.8 99C191.4 99 192 98.3 192 97.5C192 96.7 191.6 95.1 191 94C190.1 92.1 189.8 92.1 186.5 93.5C183.1 95 183 94.9 182 92.5C181.4 91.1 181 89.6 181 89C181 88.4 182.6 87.4 184.5 86.8C186.4 86.1 188 84.9 188 84.3C188 83.6 187.6 82.1 187 81C186.4 79.9 185.7 79 185.3 79.1C184.8 79.1 181.7 80.3 178.3 81.8V81.8ZM295.5 95.3C291.9 104.2 289.1 111.5 289.2 111.6C289.4 111.6 292.9 113.1 297 114.8C301.1 116.5 304.8 117.6 305.2 117.2C305.6 116.8 306.1 115.3 306.4 113.8C306.9 111.3 306.6 110.9 303.5 110C301.6 109.4 299.7 108.4 299.4 107.8C299.1 107.1 299.4 105.2 300.1 103.7C301.033 101.833 302 101.1 303 101.5C303.8 101.8 305.4 102.3 306.5 102.6C307.9 103 308.8 102.4 309.8 100.6C310.9 98.2 310.8 97.9 307.8 96.4C306 95.5 304.4 94.7 304.2 94.6C304.1 94.6 304.5 93.2 305.2 91.7C305.9 90.2 307.1 89 307.8 89C308.4 89 310.1 89.6 311.5 90.3C313.167 91.1 314.3 91.1667 314.9 90.5C315.4 89.9 316.1 88.6 316.4 87.5C316.9 86 316.4 85.2 314.3 84.1C312.7 83.4 309.4 82 306.8 81L302.1 79.1L295.5 95.3ZM317.8 104.7L308.5 119.3C313.1 122.9 316.3 124.7 318.5 125.6C321 126.6 323.8 127 326.2 126.6C328.7 126.2 331.2 124.7 333.7 122.3C335.8 120.2 338.3 116.8 339.2 114.8C340.2 112.7 341 109.2 341 107C341 104.8 340.4 101.8 339.6 100.3C338.8 98.7 335.7 95.9 332.7 93.8L327.1 90.2L317.8 104.7ZM152.4 95.6C149.7 97 146.7 98.7 145.7 99.3C144.1 100.3 144.8 101.8 153.1 114.9C158.1 122.9 162.4 129.6 162.6 129.7C162.8 129.8 164.3 129.2 166 128.2C167.7 127.2 169 126.2 169 125.9C169 125.7 167.2 122.7 165 119.4C162.8 116.1 161.3 113.2 161.5 112.9C161.7 112.7 164.1 114.3 166.7 116.5C169.3 118.7 172.2 121 173 121.7C174.2 122.6 175.2 122.4 177.8 120.6L181.1 118.4C168.2 109.3 167.2 108.2 168 106.7C168.5 105.7 169 103.8 169 102.4C169 100.9 167.6 98.6 165.5 96.4C163.5 94.5 161 92.9 159.7 92.9C158.4 92.9 155.2 94.1 152.4 95.6V95.6ZM137 133.4L133.5 137L137.5 141L144.5 133.9L140.4 129.9L137 133.4ZM347.5 133.9L345.6 136L352.6 142.9L356.6 138.9L349.5 131.8L347.5 133.9ZM173 156.5V162H308V151H173V156.5ZM0.1 237.4L0 289L22 288.5C22 254.7 22.3 244.3 22.5 243.5C22.8 242.6 23.8 241.9 24.8 241.9C25.8 241.9 27.6 242.6 28.8 243.4C31 244.9 31 245.3 31 267V289H53C53 249.6 52.7 244.2 51.5 241.5C50.7 239.5 48.9 237.4 47.6 236.7L45.1 235.5C51.7 230 52.9 228 53.9 223.9C54.9 220.1 55.1 215.7 54.7 209.5C54.3 203 53.4 199.2 51.8 196C50.6 193.5 48.2 190.5 46.5 189.4C44.9 188.3 41.1 187.1 38 186.7C35 186.4 25.3 186 16.4 186L0.2 185.8L0.1 237.4ZM65 237.5V289H112V269H88C88 248 88.3 245 89.3 245.1C89.9 245.2 94.7 245.2 99.8 245.1L109 245V226H88V206H110V186H65V237.5ZM150 225.2C150 258.6 149.8 264.8 148.5 266.7C147.6 268.1 146 269 144.5 269C143 269 141.6 268.2 141 267C140.5 265.9 140 259.4 140 252.5V240H118L118.5 274.8C123.3 281.7 125.5 283.6 126.8 283.7C128 283.9 128.8 284.4 128.5 285C128.2 285.5 129.9 286.7 132.3 287.6C134.6 288.5 139.2 289.5 142.5 289.7C146.5 290.1 150.5 289.7 154.3 288.6C158 287.6 161.5 285.7 164.1 283.2C166.4 281.2 169.2 277.7 170.4 275.5C172.4 271.6 172.5 270.2 172.8 228.7L173 186H150V225.2ZM185 237.4V288.9H232V268.9C217.8 268.9 215.9 269.3 215.5 270.4C215.2 271.3 214.5 271.9 214 271.9C213.4 271.9 213.2 271.3 213.5 270.4C213.9 269.3 213.2 268.9 211 268.9H208V244.9C214.9 244.9 216 244.5 216 243.4C216 242.6 216.7 241.9 217.5 241.9C218.3 241.9 218.8 242.5 218.5 243.2C218.1 243.9 218.9 244.8 220.2 245.2C221.5 245.6 224 245.9 225.7 245.9H229V225.9H208V205.9H230V185.9H185V237.4ZM270.6 187.4C270.3 188.3 269.1 188.9 268 188.9C266.9 188.9 265.7 189.5 265.4 190.2C264.9 191.1 264.5 191.1 263.9 189.9C263.3 188.9 261.4 188.4 257.8 188.3C253 188.2 252.3 188.6 248.3 192.3C245.8 194.7 243.2 198.4 242.2 200.9C240.8 204.7 240.5 210.4 240.3 235.9C240.1 254.3 240.4 268.2 241 270.9C241.5 273.4 243.3 277.2 244.8 279.4C246.4 281.7 250 284.8 253.1 286.4C258 289.2 259.3 289.4 268 289.4C276.1 289.4 278.3 289.1 283 286.9C286.1 285.4 289.6 282.8 291.1 280.9C292.5 279 294.2 275.9 294.9 273.9C295.5 272 296 264.7 296 257.7V244.9C274.9 244.9 273 245.2 273 246.4C273 247.3 273.7 248.2 274.5 248.4C275.3 248.7 276 249.8 276 250.9C276 252.233 275.5 252.733 274.5 252.4C273.3 252 273 253.2 273 259.4C273 265 272.6 267.3 271.4 268.4C270.6 269.3 269.1 270 268.2 270C267.3 270 265.7 269.2 264.8 268.2C263.2 266.6 263 263.5 263 237.7C263 212.8 263.2 208.7 264.6 207.4C265.4 206.6 266.8 205.9 267.6 205.9C268.4 205.9 269.9 206.8 271 207.9C272.7 209.6 273 211.3 273 218.4V226.9H296C296 211.4 295.8 206.3 295.5 205.4C295.2 204.6 294.5 204.2 294 204.4C293.4 204.7 292.8 204.5 292.5 203.9C292.2 203.4 292.7 202.9 293.5 202.9C294.3 202.9 295 202.7 295 202.4C295 202.2 294.1 200.1 293 197.9C291.9 195.7 289.5 192.8 287.7 191.5C286 190.2 282.5 188.3 280 187.5C277.5 186.6 274.5 185.9 273.3 185.9C272.1 185.9 270.9 186.6 270.6 187.4ZM302.5 186.6C302 187 301.7 189.9 301.8 193.1C302 197.3 302.3 198.8 303.2 198.4C303.9 198.1 305.4 198.6 306.5 199.4C308.4 200.8 308.4 200.9 305.2 200.9C302.5 200.9 302 201.3 302 203.4C302 205.9 302.2 205.9 309 205.9H316V288.9H338V205.9H352V185.9C348.1 185.9 346.6 186.7 346 187.7C345.1 189.4 345.1 189.4 345 187.7C345 186.1 343.3 185.9 324.2 185.9C312.7 185.9 303 186.2 302.5 186.6ZM361 186.6C359.9 187 359.6 188.8 359.8 194.5C359.9 198.7 360.4 201.9 361 201.9C361.5 201.9 362 201.5 362 200.9C362 200.4 362.1 199.4 362.2 198.8C362.4 198.1 363.8 197.2 365.5 196.7L368.5 195.9C365.6 200.2 363.7 202.9 362.4 204.7L360 207.9C360 280.3 360.2 286.2 361.5 287.4C362.7 288.7 366.8 288.9 385 288.9H407V268.9C383.7 268.9 383 268.8 383 266.9C383 265.6 382.6 265.2 381.7 265.6C380.8 266.2 380.8 266 381.7 264.9C382.4 264.1 383 259.5 383.2 254.4L383.5 245.4L404 244.9V225.9H383V205.9H405V185.9C372.1 186.1 361.8 186.3 361 186.6V186.6ZM417.1 206.3C417 217.7 417.3 226.9 417.7 226.9C418.2 226.9 419.6 226.2 421 225.4C422.4 224.7 423.8 224 424.2 224C424.7 224 425.1 225.2 425.2 226.8C425.5 229.6 425.4 229.6 421.2 229L417 228.4V288.9C442.6 288.9 452.4 288.4 455.2 287.8C458.5 287 461.8 285.4 463.9 283.5C465.7 281.8 468.1 278.8 469.1 276.7C470.2 274.6 471.4 270.1 471.9 266.7C472.3 263.3 472.5 247.8 472.3 232.4C472 217 471.4 202.9 470.8 200.9C470.2 199 468.6 195.9 467.1 194C465.7 192.1 462.5 189.6 460 188.5C456.1 186.8 452.9 186.5 436.4 186.1L417.2 185.7L417.1 206.3ZM21.7 306.9C21.9 308.9 21.6 309.833 20.8 309.7C20 309.5 19.5 310.5 19.6 312.4C19.6 314.1 20.6 316.9 21.8 318.7C23 320.5 23.8 322.2 23.5 322.4C23.2 322.7 22.1 321.9 20.9 320.7L18.8 318.4C19.9 325.4 21.5 330.2 23.1 333.7C24.7 337.2 28.2 342.1 31 344.9C34.9 348.8 36.6 349.9 38.8 349.7C40.6 349.5 41.5 349.9 41.5 350.9C41.5 351.8 43.5 353.8 45.9 355.4C48.4 357.1 52.1 360.7 54.1 363.4C56.2 366.2 58.5 370 59.4 371.9C60.2 373.9 61.5 379.3 62.3 383.9C63.1 388.6 64.7 394.6 65.9 397.2C67 399.8 68.5 401.7 69 401.4C69.6 401.2 70.5 401.2 71 401.4C71.6 401.7 71.5 402.5 70.8 403.5C69.7 404.8 70.2 405.7 74 409.5C76.5 412 79.8 414.4 81.3 414.7C82.8 415.1 84 415.8 84 416.2C84 416.6 85.2 417.6 86.8 418.3C88.3 419.1 93.8 420.5 99 421.4C104.2 422.3 110.8 424.2 113.5 425.6C116.3 427 120 429.3 121.9 430.8C123.7 432.2 128.1 437.7 131.5 442.9C134.9 448.2 139.2 453.7 141.1 455.3C143 456.9 147.4 459.6 151 461.3C155.4 463.3 159.6 464.4 164 464.7C168.6 465.1 173.3 464.5 180 463C186.9 461.3 191.1 460.9 195.3 461.3C198.4 461.7 203.4 462.8 206.3 463.9C209.1 465 214 467.8 217 470.1C220 472.4 225 475.4 228 476.8C231.9 478.6 235.8 479.4 241.5 479.8C247 480.1 251.3 479.7 255.3 478.6C258.4 477.7 261.2 476.3 261.5 475.4C261.8 474.6 262.6 474.2 263.3 474.5C263.9 474.8 265.5 474.1 266.8 473C268 471.8 269 470 269 468.9C269 467.8 269.5 466.9 270 466.9C270.6 466.9 270.7 467.7 270.3 468.6C269.7 470 270.7 469.7 274.5 467.5C277.3 465.9 279.7 464.4 280 464.2C280.3 464 279 462.7 277.3 461.4C275.5 460 274 458.3 274 457.4C274 456.6 272.9 455.3 271.5 454.4C269.2 453.1 269.1 452.7 270.3 450.4C271.1 448.6 272.3 447.9 274.3 447.9C276.8 447.9 277 448.3 277.3 452.2C277.5 456.2 277.7 456.4 280.8 456.7C283.4 456.9 284.1 457.4 284.6 459.7C285.2 462.3 285.4 462.4 289.4 461.6C291.6 461.1 296.2 461 299.5 461.4C302.8 461.7 307.3 462.6 309.5 463.4C311.7 464.2 316.3 464.9 319.8 464.9C323.2 464.9 326.7 464.7 327.5 464.4C328.3 464.2 329 463.3 329 462.4C329 461.6 329.7 460.9 330.5 460.9C331.3 460.9 331.8 461.4 331.5 461.9C331.2 462.5 331.8 462.9 332.8 462.9C333.7 462.9 336.9 461.6 339.8 459.9C342.6 458.3 346.7 455.2 348.8 453.1C350.8 451 354.3 446.2 356.5 442.5C358.7 438.7 362.5 433.9 365 431.7C367.5 429.5 371.8 426.6 374.5 425.4C377.3 424.1 383.6 422.4 388.5 421.5C393.6 420.6 400.1 418.7 403.5 417.1C407.5 415.1 411.3 412.1 414.8 408.3C417.9 404.8 420.9 400.2 422.1 396.9C423.3 393.9 424.6 388.3 425.2 384.4C425.7 380.6 427 375.5 428.1 373.2C429.1 370.8 429.9 368.6 429.8 368.1C429.6 367.7 432.4 364.4 435.9 360.9C439.5 357.3 442.3 354.1 442.2 353.7C442.1 353.3 442.6 352.7 443.3 352.5C443.9 352.3 445.7 351.8 447.3 351.5C448.8 351.2 452.3 348.8 455.1 346.2C458 343.6 461.3 339.9 462.5 337.9C463.7 336 465.4 332.4 466.3 329.9C467.4 326.6 467.5 325.3 466.7 324.8C465.9 324.3 466 323.6 467.3 322.5C468.3 321.6 469 319.5 469 317.4C469 315.5 468.6 311.7 468 308.9L467 303.9L438.8 304.4C434.6 316.1 431.4 323.5 429.1 328.4C426.8 333.4 422.6 341.3 419.7 345.9C416.9 350.6 411.7 358.3 408.2 362.9C404.6 367.6 398.8 374.8 395.1 378.8C391.5 382.9 383.8 390.3 378 395.3C372.2 400.2 362.8 407.4 357 411.3C351.2 415.1 340.7 421.1 333.5 424.5C326.4 428 316 432.4 310.5 434.3C305 436.2 294.9 438.9 288 440.5C281.1 442 274.9 443.8 274.3 444.6C273.5 445.4 272.8 445.5 272.5 444.9C272.2 444.4 271.3 443.9 270.5 443.9C269.7 443.9 269 444.8 269 445.9C269 447.233 268.5 447.733 267.5 447.4C266.7 447.2 265.3 446.9 264.5 446.9C263.7 446.9 263.2 446.5 263.5 445.9C263.8 445.3 260.2 444.9 253.5 444.9C243.1 444.9 243 445 243.6 447.2C243.9 448.4 244.5 450.8 244.8 452.4C245.2 454.6 245 455.2 244.2 454.7C243.5 454.3 243 453.3 243 452.4C243 451.4 242.333 451.067 241 451.4C239.2 451.9 239.1 451.5 239.5 448.4C239.9 445.8 239.6 444.9 238.5 444.9C237.7 444.9 237 445.8 237 446.9C237 448 236.6 449.2 236 449.4C235.5 449.7 234.8 449.7 234.5 449.4C234.2 449.2 234.5 448 235 446.9C235.9 445.1 235.7 444.9 231.3 445C228.6 445 221.6 444.4 215.5 443.5C209.5 442.6 200.2 440.8 195 439.4C189.8 438.1 181.9 435.8 177.5 434.4C173.1 432.9 165.7 430 161 427.9C156.3 425.9 148.7 422.1 144 419.4C139.3 416.8 131.9 412.2 127.5 409.2C123.1 406.1 115.7 400.4 111.1 396.5C106.5 392.6 99.1 385.6 94.7 380.9C90.3 376.3 84.1 369.1 81 364.9C77.9 360.8 73.2 354.2 70.7 350.2C68.1 346.2 63.6 338.1 60.6 332.2C57.7 326.3 53.8 317.5 51.9 312.7L48.5 303.9H21.4L21.7 306.9ZM62 304.4C62 304.7 63.8 309.3 66 314.7C68.2 320 72.5 328.7 75.4 333.9C78.4 339.2 83.7 347.5 87.2 352.4C90.7 357.3 98.7 366.7 105 373.3C111.3 379.8 120.1 388 124.5 391.4C128.9 394.9 136.1 400 140.5 402.9C144.9 405.8 153.5 410.5 159.5 413.4C165.6 416.4 174.6 420.2 179.5 421.9C184.5 423.6 192.8 426.1 198 427.5C203.2 428.8 211.4 430.4 216.2 431.1L224.8 432.4L229.1 427.4C228.1 432.4 228.1 432.4 236.3 432.7L244.5 433L243.9 427.4C248.2 432.1 250 432.9 252.3 432.9C254.1 432.9 256.2 432.4 256.8 431.7C257.8 430.7 258 430.7 258 431.7C258 432.6 259.2 432.8 262.3 432.4C264.6 432 268.8 431.4 271.5 430.8C274.3 430.3 278.3 429.7 280.5 429.4C282.7 429.2 289.5 427.6 295.5 425.9C301.6 424.2 311.5 420.8 317.5 418.3C323.6 415.8 331.4 412.1 335 410.2C338.6 408.2 345.1 404.2 349.5 401.3C353.9 398.4 361.1 393.2 365.5 389.6C369.9 386.1 378.2 378.3 383.8 372.3C389.5 366.3 396.9 357.5 400.3 352.6C403.7 347.8 406.4 343.1 406.3 342.4C406.1 341.6 406.6 340.9 407.3 341C407.9 341 411.6 335 415.3 327.7L422.2 314.4C418.2 312.5 417 311.5 417 310.9C417 310.4 418.1 309.9 419.5 309.9C421.2 309.9 422 310.5 422.1 311.7C422.1 312.6 422.9 311.4 424 308.9C425.2 305.8 425.4 304.3 424.6 304.1C424 303.9 422.2 304.3 420.5 304.9C418.5 305.6 417.4 305.7 417.3 305C417.1 304.4 416.3 303.9 415.5 303.9C414.6 303.9 413.8 305.2 413.4 307.2C413 309 411.8 312.1 410.6 314.2C409.2 316.8 408.8 318.2 409.6 318.7C410.2 319.1 410.5 320.1 410.1 320.9C409.8 321.8 408.9 322.4 408.1 322.4C407.4 322.4 405 325.6 402.8 329.4C400.7 333.3 395.8 340.7 392.1 345.9C387.8 351.9 385.6 355.8 386.1 356.4C386.6 357 387 357.8 387 358.2C387 358.6 386.3 358.9 385.5 358.9C384.7 358.9 384 358.6 384 358.2C384 357.8 378.5 362.8 371.8 369.5C365 376.1 356.5 383.7 352.8 386.5C346.8 390.8 346.2 391.6 347.5 392.9C348.3 393.8 349 395 349 395.7C349 396.5 348.267 396.7 346.8 396.3C344.8 395.7 344.7 395.8 345.8 397.3C346.8 398.6 346.8 399.1 345.8 399.5C345.1 399.8 343.5 399.6 342.3 399C341 398.4 340 398.3 340 398.7C340 399.1 340.5 400 341.2 400.6C342 401.3 342.2 402.5 341.8 403.4C341.3 404.2 340 405 338.8 405C337.5 405 335.8 404.3 335 403.4C333.6 402 333.3 402.1 331.3 404.6C329.2 407.3 329 407.4 326.3 405.9C323.6 404.4 323.1 404.6 314.5 408.2C309.6 410.4 300.2 413.7 293.8 415.5C287.3 417.4 281.2 418.9 280.2 418.9C279.2 418.9 278 419.3 277.7 419.7C277.3 420.1 277.5 421 278 421.7C278.7 422.6 278.6 423.1 277.5 423.4C276.6 423.7 275.6 423.1 275 421.9C274.3 420.5 273.3 420.1 271.8 420.4C270.5 420.7 264.3 421.4 258 421.9C250.9 422.6 246.2 423.4 245.8 424.2C245.2 425.1 244.8 425.2 244.3 424.2C243.8 423.6 242.6 423 241.5 423C240.4 423 234.6 422.5 228.5 421.9C222.5 421.3 213 419.9 207.5 418.8C202 417.7 192.1 415 185.5 412.8C178.9 410.5 168.8 406.3 163 403.4C157.2 400.5 148.5 395.5 143.5 392.2C138.6 389 130.5 382.9 125.5 378.8C120.6 374.6 113.6 367.9 110 363.8C106.4 359.8 101.9 354.4 99.9 351.9C97.9 349.5 93.9 343.8 91.1 339.4C88.2 335 83.5 326.7 80.6 320.9C77.7 315.2 74.8 309 74.2 307.2C73 304.1 72.8 303.9 67.5 303.9C64.5 303.9 62 304.2 62 304.4V304.4ZM173 310.4V315.9H308V304.9H173V310.4ZM128.8 341.8C127.1 343.9 127.1 344.1 129.8 347.4C131.3 349.4 132.7 350.9 133 351C133.3 351 134.3 350.2 135.3 349.2C136.9 347.5 136.9 347.3 133.8 343.6L130.5 339.7L128.8 341.8ZM353 344.4C351.1 346.3 349.8 348 350.1 348.2C350.3 348.4 351.4 349.2 352.3 350C354 351.3 354.5 351.1 357.6 347.9C360.9 344.6 360.9 344.3 359.3 342.7C358.3 341.7 357.3 340.9 357 340.9C356.7 340.9 354.9 342.5 353 344.4ZM154.1 357.5C149.4 364.3 145.1 370.6 144.6 371.5C143.8 372.6 144.2 373.5 146.1 375C147.4 376 148.9 376.9 149.3 376.9C149.7 376.9 151.9 374.2 154.1 370.9C156.3 367.6 158.3 365 158.5 365.2C158.8 365.3 158.1 368.6 157 372.4C155.9 376.3 155.1 379.9 155.1 380.4C155.1 381 156.2 382.2 157.6 383.2C158.9 384.1 160.4 384.7 160.8 384.3C161.2 384 162.3 380.5 163.2 376.6C164.7 369.7 164.9 369.4 168.2 368.7C170 368.3 172.6 367 173.8 365.7C175.1 364.5 176.3 362.2 176.6 360.7C176.8 359.2 176.4 356.7 175.6 355.2C174.9 353.7 172.1 350.8 169.4 348.7C166.7 346.7 164.1 345 163.6 345C163 345 158.7 350.6 154.1 357.5V357.5ZM312.3 352.9C309.4 354.6 306.8 356.4 306.6 356.9C306.3 357.5 309.6 363.2 314 369.7C318.4 376.1 323.1 382.2 324.5 383.2C327 384.9 327.1 384.9 331.8 381.6C335.1 379.3 337 377.1 338 374.4C338.8 372.1 339.1 369 338.7 366.9C338.4 365 336.7 361.2 334.8 358.6C333 355.9 330 352.8 328.1 351.8C326.1 350.8 323 349.9 321.1 349.9C319 349.9 315.4 351.2 312.3 352.9ZM183.6 358.7C183.4 359.1 180 366.3 176.1 374.7C172.2 383.1 169.2 389.9 169.3 389.9C169.4 389.9 173 391.5 177.3 393.4L185.1 396.9L188.1 390.9C179.4 386.5 179.3 386.3 180.4 383.5C181 382 181.9 380.5 182.3 380.3C182.7 380.1 184.4 380.6 186.1 381.4C188.9 382.8 189.1 382.8 190.1 380.9C190.6 379.8 191.1 378.4 191.1 377.7C191.1 377 189.7 375.8 188.1 374.9C186.4 374.1 185 373.3 185 373.2C185 373 185.6 371.8 186.3 370.4C187 369 188.1 367.9 188.8 367.9C189.5 367.9 191.4 368.6 193.1 369.4C195.9 370.8 196.1 370.8 197.1 368.9C197.6 367.8 198 366.3 198 365.6C197.9 364.8 194.8 362.8 190.9 361.1C187.1 359.5 183.8 358.4 183.6 358.7V358.7ZM294 362.2C289.9 363.8 286.7 365.5 286.8 365.8C286.9 366.1 289.9 373.5 293.5 382.2L300.1 397.9C311.3 393.1 314.9 391.4 315.3 391.1C315.8 390.7 315.6 389.2 314.8 387.7C314.1 386.1 313.1 384.9 312.6 384.9C312 385 310.4 385.6 309.1 386.4C307.7 387.2 306.1 387.9 305.6 387.9C305 388 304 386.9 303.3 385.5C302.6 384.1 302.1 382.5 302.1 381.9C302.1 381.4 303.4 380.5 305.1 379.9C306.7 379.4 308.1 378.4 308.1 377.7C308.1 377 307.5 375.6 306.8 374.6C305.9 373.3 304.9 372.9 303.3 373.3C301.5 373.8 301.2 374.4 301.6 376.7C301.9 378.3 301.5 380.3 300.7 381.4C299.2 383.4 299.1 383.3 297.7 379.9C296.6 377.3 296.5 376.1 297.4 375.1C298.3 374.1 298.3 373.3 297.3 371.4C296.1 369.1 296.3 368.8 300.1 367.2C303.4 365.8 304 365.1 303.5 363.4C303.1 362.3 302.5 360.9 302.1 360.3C301.6 359.6 299 360.2 294 362.2V362.2ZM272.6 369.3C264.8 371.2 263.6 371.8 263.9 373.5C264 374.6 264.4 376 264.6 376.7C264.9 377.5 266.2 377.7 268.3 377.4L271.6 376.8C276.2 396.4 277.8 402.5 278.1 402.9C278.3 403.3 280 403.5 281.8 403.3C283.9 403.1 285.1 402.4 285.1 401.4C285.1 400.6 283.7 394.4 282.1 387.7C280.5 380.9 279.4 375.1 279.6 374.7C279.9 374.3 281.2 373.9 282.6 373.9C284.4 373.9 285.1 373.4 285.1 371.9C285.1 370.8 284.8 369.3 284.6 368.4C284.3 367.6 283.5 367 282.8 367C282.1 367.1 277.5 368.1 272.6 369.3ZM207.2 375.5C206 379.6 205.1 383.4 205.1 383.9C205.1 384.5 205.5 384.7 206.1 384.4C206.6 384.2 208.2 384.4 209.6 384.9C211.267 385.567 212.267 385.567 212.6 384.9C212.8 384.4 212.5 383.2 211.8 382.4C210.8 381.1 210.9 380.5 212.8 378.9C214 377.8 215.3 375.5 215.6 373.7C215.9 371.9 215.8 370.2 215.4 369.8C214.9 369.5 213.4 368.9 211.9 368.6C209.4 368 209.2 368.2 207.2 375.5ZM220.6 376.1C220.1 379 220.1 382.3 220.4 383.4C220.8 384.6 220.6 385.8 219.8 386.2C218.9 386.8 218.9 387 220.1 386.9C220.9 386.8 222.1 386.8 222.8 386.8C223.5 386.9 223.8 387.4 223.6 387.9C223.3 388.5 222.2 388.9 221.1 388.9C219.4 388.9 219 389.8 218.5 393.7C218.2 396.3 217.8 400.1 217.5 402.2L217.1 405.9C229.8 406.9 233.8 407.3 234.1 407.3C234.3 407.4 234.7 406.1 234.9 404.4C235 402.7 234.6 401.1 233.9 400.7C233.1 400.3 231.1 400 229.3 399.9C226.2 399.9 226.1 399.8 226.1 395.9V391.9L234.1 392.9C234.1 386.1 233.9 385.9 230.6 385.9C227.7 385.9 227.1 385.6 227.1 383.9C227.1 382.8 227.3 381.3 227.6 380.4C227.9 379.4 229.4 378.9 232.6 378.9C236.9 378.9 237.1 378.8 237.1 375.9C237.1 373.9 236.5 372.8 235.3 372.5C234.3 372.3 230.8 371.8 227.5 371.4L221.4 370.8L220.6 376.1ZM254.6 372.8C254.9 374.3 254.7 374.8 253.6 374.4C252.7 374.1 252.2 373.4 252.5 372.9C252.7 372.3 252.7 371.9 252.5 371.9C252.2 371.9 250.7 372.6 249.1 373.4C247.3 374.3 245.3 376.6 244.1 379.1C243 381.5 242.1 385.6 242.1 388.4C242.1 391.1 242.6 395 243.2 396.9C243.8 398.8 245.5 401.6 247 403.2C248.4 404.7 250.8 406.4 252.3 406.9C254.6 407.7 255.1 407.6 255 406.1C255 405.2 255.4 404.1 255.8 403.6C256.2 403.2 257.2 403.9 258.1 405.3C259.3 407.2 260 407.5 261.8 406.8C263.1 406.3 264.1 405 264.1 403.9C264.1 402.8 263.8 401.2 263.6 400.4C263.3 399.6 262.4 399.1 261.6 399.4C260.7 399.7 260.3 400.6 260.6 401.4C260.8 402.2 260.6 402.9 260.1 402.9C259.5 402.9 258.5 402.5 257.8 401.9C257.1 401.4 255.3 399.9 253.7 398.7C251.5 396.9 250.7 395.3 250.3 391.4C249.9 388.2 250.2 385.2 251.2 383.1C252.1 380.9 253.4 379.5 255.1 379.2C256.4 378.9 258.8 378.9 260.3 379.3C263 379.9 263 379.8 262.4 376.6C262.1 374.9 261.5 373.1 261.2 372.8C260.8 372.4 259.1 371.8 257.3 371.4C254.4 370.8 254.1 370.9 254.6 372.8V372.8ZM207 387.4C205.9 388.7 205.4 388.7 204.9 387.7C204.5 386.9 203.9 387.7 203.2 389.9C202.6 391.8 201.5 393.7 200.6 394.1C199.7 394.6 198.1 394.1 196.6 392.9L194.1 390.9C193.3 394 192.8 395.8 192.6 396.9C192.2 398.4 192.8 399.3 195.1 400.4C196.7 401.2 199.6 401.9 201.6 401.9C204.2 401.9 205.6 401.2 207.1 399.1C208.3 397.6 209.7 394.7 210.4 392.6C211.4 389.5 211.3 388.6 210 387.3C208.7 385.9 208.4 386 207 387.4Z" fill="#FA2228"/>
</svg>
