<svg width="65" height="65" viewBox="0 0 65 65" fill="none" xmlns="http://www.w3.org/2000/svg">
<g clip-path="url(#clip0_137_2075)">
<path d="M32.49 64.7051C50.1631 64.7051 64.49 50.3783 64.49 32.7051C64.49 15.032 50.1631 0.705139 32.49 0.705139C14.8169 0.705139 0.48999 15.032 0.48999 32.7051C0.48999 50.3783 14.8169 64.7051 32.49 64.7051Z" fill="#F57C00"/>
<path fill-rule="evenodd" clip-rule="evenodd" d="M27.1265 21.4748C27.7218 21.7842 28.3974 22.0443 29.1298 22.2488C29.2927 21.7959 29.4767 21.3658 29.6835 20.9674C30.0632 20.2356 30.498 19.6373 30.972 19.1844C29.4896 19.5975 28.1689 20.4002 27.1265 21.4748ZM26.6238 42.9125C26.6238 41.668 27.0679 40.526 27.8865 39.6348C27.1054 39.319 26.1902 39.159 25.1578 39.159C21.9298 39.159 19.8445 40.7545 19.8445 43.2242V45.7086H21.8865V43.6994C21.8865 43.5049 22.0435 43.3479 22.238 43.3479C22.432 43.3479 22.5896 43.5055 22.5896 43.6994V45.7086H26.6244V42.9125H26.6238ZM41.3671 39.159C40.3347 39.159 39.4195 39.3195 38.6384 39.6348C39.457 40.5254 39.9011 41.6674 39.9011 42.9125V45.7086H43.9365V43.6994C43.9365 43.5049 44.0941 43.3479 44.288 43.3479C44.482 43.3479 44.6396 43.5055 44.6396 43.6994V45.7086H46.6804V43.2242C46.6804 40.7551 44.5945 39.159 41.3671 39.159ZM38.6806 35.6885C38.6806 37.1697 39.8859 38.375 41.3671 38.375C42.8484 38.375 44.0537 37.1697 44.0537 35.6885C44.0537 34.2072 42.8484 33.002 41.3671 33.002C39.8859 33.002 38.6806 34.2072 38.6806 35.6885ZM33.2625 38.3621C36.8683 38.3621 39.198 40.1481 39.198 42.9125V45.7086H36.8554V43.4399C36.8554 43.2453 36.6978 43.0883 36.5039 43.0883C36.3099 43.0883 36.1523 43.2459 36.1523 43.4399V45.7086H30.3726V43.4399C30.3726 43.2453 30.215 43.0883 30.021 43.0883C29.8271 43.0883 29.6695 43.2459 29.6695 43.4399V45.7086H27.3269V42.9125C27.3269 40.1481 29.6566 38.3621 33.2625 38.3621ZM27.8443 35.6885C27.8443 34.2072 26.639 33.002 25.1578 33.002C23.6765 33.002 22.4712 34.2072 22.4712 35.6885C22.4712 37.1697 23.6765 38.375 25.1578 38.375C26.639 38.375 27.8443 37.1697 27.8443 35.6885ZM36.5589 32.8209C36.6124 32.6915 36.6632 32.561 36.7113 32.4295C36.5613 32.3961 36.4083 32.3656 36.2548 32.3363C36.3685 32.4887 36.4699 32.651 36.5589 32.8209ZM37.3962 32.6024C37.9927 32.7693 38.5505 32.9727 39.0591 33.21C38.7064 33.5381 38.4272 33.9373 38.24 34.3813C37.8292 34.6762 37.3929 34.9339 36.9363 35.1512C36.9685 34.9555 36.9861 34.7539 36.9861 34.5488C36.9861 34.2793 36.9562 34.0168 36.9017 33.7637C37.0845 33.3986 37.2492 33.0108 37.3962 32.6024ZM33.2625 31.5283C34.9277 31.5283 36.283 32.883 36.283 34.5488C36.283 36.2141 34.9277 37.5693 33.2625 37.5693C31.5972 37.5693 30.2419 36.2141 30.2419 34.5488C30.2419 32.8836 31.5978 31.5283 33.2625 31.5283ZM29.8142 32.4295C29.8623 32.561 29.9131 32.6915 29.9666 32.8209C30.0556 32.6516 30.1576 32.4893 30.2707 32.3363C30.1166 32.3651 29.9642 32.3955 29.8142 32.4295ZM29.1292 32.6024C29.2763 33.0108 29.441 33.3986 29.6238 33.7637C29.5693 34.0168 29.5394 34.2793 29.5394 34.5488C29.5394 34.7539 29.557 34.9549 29.5892 35.1512C29.1334 34.9344 28.6968 34.6766 28.2849 34.3813C28.0974 33.9342 27.8162 33.5358 27.4664 33.21C27.9744 32.9727 28.5322 32.7693 29.1292 32.6024ZM28.9101 31.9332C28.5363 30.6717 28.3242 29.2549 28.2949 27.7772H24.7166C24.7857 29.5092 25.3658 31.1463 26.4052 32.5373C26.5511 32.5953 26.6923 32.6633 26.8277 32.7401C27.4511 32.419 28.1519 32.1477 28.9101 31.9332ZM32.9109 30.8422V27.7772H28.998C29.0267 29.1986 29.2318 30.5563 29.591 31.7592C30.0902 31.6449 30.6099 31.5541 31.1455 31.4879C31.6686 31.1243 32.2767 30.9019 32.9109 30.8422ZM36.9339 31.7592C37.2931 30.5568 37.4982 29.1986 37.5269 27.7772H33.614V30.8422C34.2482 30.9019 34.8563 31.1243 35.3794 31.4879C35.915 31.5541 36.4347 31.6449 36.9339 31.7592ZM41.8083 27.7777H38.23C38.2007 29.2555 37.9886 30.6723 37.6148 31.9338C38.373 32.1483 39.0738 32.419 39.6978 32.7406C39.8337 32.6632 39.9749 32.5955 40.1203 32.5379C41.1597 31.1469 41.7398 29.5092 41.8083 27.7777ZM39.8812 22.0151C39.2132 22.3789 38.4474 22.6818 37.6142 22.9174C37.9886 24.1795 38.2007 25.5969 38.23 27.0752H41.8078C41.7304 25.1598 41.0203 23.4055 39.8812 22.0151ZM36.8419 20.9674C36.4623 20.2356 36.0275 19.6373 35.5535 19.1844C37.0353 19.5969 38.3566 20.3996 39.3996 21.4742C38.8037 21.7836 38.1281 22.0438 37.3957 22.2483C37.2328 21.7959 37.0488 21.3664 36.8419 20.9674ZM36.9333 23.0908C35.8921 23.3287 34.7677 23.4664 33.614 23.4893V27.0746H37.5269C37.4982 25.6526 37.2931 24.2938 36.9333 23.0908ZM33.614 18.9031V22.7861C34.6921 22.7639 35.7404 22.6385 36.7107 22.4211C36.5642 22.0221 36.4001 21.6436 36.2173 21.2914C35.4955 19.8992 34.5814 19.066 33.614 18.9031ZM29.8142 22.4211C29.9607 22.0221 30.1248 21.6436 30.3076 21.2914C31.0294 19.8992 31.9435 19.0666 32.9109 18.9031V22.7861C31.8328 22.7639 30.7845 22.6385 29.8142 22.4211ZM29.5916 23.0908C29.2318 24.2938 29.0267 25.6526 28.998 27.0746H32.9109V23.4893C31.7572 23.4658 30.6328 23.3287 29.5916 23.0908ZM28.9107 22.9168C28.5363 24.1783 28.3242 25.5963 28.2949 27.0746H24.7171C24.7951 25.1598 25.5046 23.4055 26.6437 22.0145C27.3117 22.3783 28.0775 22.6818 28.9107 22.9168Z" fill="#FFF8EE"/>
</g>
<defs>
<clipPath id="clip0_137_2075">
<rect width="64" height="64" fill="white" transform="translate(0.48999 0.705139)"/>
</clipPath>
</defs>
</svg>
