<svg width="65" height="65" viewBox="0 0 65 65" fill="none" xmlns="http://www.w3.org/2000/svg">
<g clip-path="url(#clip0_137_2065)">
<path d="M32.283 64.4103C49.9561 64.4103 64.283 50.0834 64.283 32.4103C64.283 14.7372 49.9561 0.410278 32.283 0.410278C14.6098 0.410278 0.282959 14.7372 0.282959 32.4103C0.282959 50.0834 14.6098 64.4103 32.283 64.4103Z" fill="#F57C00"/>
<path d="M38.783 42C39.3134 42 39.8221 41.7893 40.1972 41.4142C40.5722 41.0391 40.783 40.5304 40.783 40C40.783 39.4696 40.5722 38.9609 40.1972 38.5858C39.8221 38.2107 39.3134 38 38.783 38C38.2525 38 37.7438 38.2107 37.3687 38.5858C36.9937 38.9609 36.783 39.4696 36.783 40C36.783 40.5304 36.9937 41.0391 37.3687 41.4142C37.7438 41.7893 38.2525 42 38.783 42ZM25.783 26C26.3134 26 26.8221 25.7893 27.1972 25.4142C27.5722 25.0391 27.783 24.5304 27.783 24C27.783 23.4696 27.5722 22.9609 27.1972 22.5858C26.8221 22.2107 26.3134 22 25.783 22C25.2525 22 24.7438 22.2107 24.3687 22.5858C23.9937 22.9609 23.783 23.4696 23.783 24C23.783 24.5304 23.9937 25.0391 24.3687 25.4142C24.7438 25.7893 25.2525 26 25.783 26ZM25.783 42C26.3134 42 26.8221 41.7893 27.1972 41.4142C27.5722 41.0391 27.783 40.5304 27.783 40C27.783 39.4696 27.5722 38.9609 27.1972 38.5858C26.8221 38.2107 26.3134 38 25.783 38C25.2525 38 24.7438 38.2107 24.3687 38.5858C23.9937 38.9609 23.783 39.4696 23.783 40C23.783 40.5304 23.9937 41.0391 24.3687 41.4142C24.7438 41.7893 25.2525 42 25.783 42Z" stroke="white" stroke-width="2" stroke-linejoin="round"/>
<path d="M25.783 26V38M32.283 25H36.783C37.3134 25 37.8221 25.2107 38.1972 25.5858C38.5722 25.9609 38.783 26.4696 38.783 27V38" stroke="white" stroke-width="2" stroke-linecap="round" stroke-linejoin="round"/>
<path d="M35.283 28L32.283 25L35.283 22" stroke="white" stroke-width="2" stroke-linecap="round" stroke-linejoin="round"/>
</g>
<defs>
<clipPath id="clip0_137_2065">
<rect width="64" height="64" fill="white" transform="translate(0.282959 0.705139)"/>
</clipPath>
</defs>
</svg>
