<svg width="65" height="65" viewBox="0 0 65 65" fill="none" xmlns="http://www.w3.org/2000/svg">
<g clip-path="url(#clip0_137_2039)">
<path d="M32.5 64.7051C50.1731 64.7051 64.5 50.3783 64.5 32.7051C64.5 15.032 50.1731 0.705139 32.5 0.705139C14.8269 0.705139 0.5 15.032 0.5 32.7051C0.5 50.3783 14.8269 64.7051 32.5 64.7051Z" fill="#F57C00"/>
<path d="M32.6774 64.703C48.3678 64.6176 61.3843 53.2414 64.0144 38.285L46.7223 20.9929L36.765 32.301L18.4573 50.4829L32.6774 64.703Z" fill="#FFEBCC"/>
<path d="M40.6566 14.9274H18.4573V50.4829H46.7223V20.9929L40.6566 14.9274Z" fill="white"/>
<path d="M46.7222 20.9929L40.6565 14.9274H30.1655V50.4829H46.7222V20.9929Z" fill="#E6F3FF"/>
<path d="M40.6567 20.9931L46.7224 20.9929L40.6567 14.9274V20.9931Z" fill="#CFDBE6"/>
<path d="M30.1296 32.3355C32.746 32.3355 34.8671 30.2145 34.8671 27.598C34.8671 24.9816 32.746 22.8605 30.1296 22.8605C27.5131 22.8605 25.3921 24.9816 25.3921 27.598C25.3921 30.2145 27.5131 32.3355 30.1296 32.3355Z" fill="#26BEBE"/>
<path d="M34.867 27.5976C34.867 24.9933 32.7654 22.8806 30.1655 22.861V32.3341C32.7654 32.3146 34.867 30.2018 34.867 27.5976Z" fill="#21ADA9"/>
<path d="M20.3584 42.5501C20.3584 37.1536 24.733 32.779 30.1295 32.779C35.526 32.779 39.9006 37.1536 39.9006 42.5501H20.3584Z" fill="#324A5E"/>
<path d="M30.1655 32.7802V42.5502H39.9007C39.9007 37.166 35.5452 32.7995 30.1655 32.7802Z" fill="#2B3B4E"/>
<path d="M31.0181 46.2124L29.6467 44.841L37.5096 36.9779L42.2142 41.6824L51.1072 30.5663L52.6214 31.7779L42.375 44.5862L37.5096 39.7208L31.0181 46.2124Z" fill="#C1321F"/>
<path d="M51.6157 34.9544L51.1698 32.139L48.4124 32.4265L48.2112 30.4977L52.7978 30.0195L53.5313 34.651L51.6157 34.9544Z" fill="#C1321F"/>
</g>
<defs>
<clipPath id="clip0_137_2039">
<rect width="64" height="64" fill="white" transform="translate(0.5 0.705139)"/>
</clipPath>
</defs>
</svg>
